<svg width="22" height="27" viewBox="0 0 22 27" xmlns="http://www.w3.org/2000/svg">
<path d="M13.875 27H0V0H12.75C14.2532 8.94729e-05 15.7251 0.430428 16.9916 1.24018C18.2581 2.04993 19.2663 3.20526 19.8973 4.56968C20.5282 5.9341 20.7555 7.4506 20.5522 8.94003C20.3489 10.4295 19.7235 11.8296 18.75 12.975C20.0216 13.9919 20.9467 15.378 21.398 16.9424C21.8493 18.5069 21.8045 20.1727 21.2699 21.7107C20.7354 23.2486 19.7372 24.5831 18.4129 25.5303C17.0886 26.4775 15.5032 26.991 13.875 27ZM4.5 22.5H13.845C14.2882 22.5 14.7271 22.4127 15.1366 22.2431C15.546 22.0735 15.9181 21.8249 16.2315 21.5115C16.5449 21.1981 16.7935 20.826 16.9631 20.4166C17.1327 20.0071 17.22 19.5682 17.22 19.125C17.22 18.6818 17.1327 18.2429 16.9631 17.8334C16.7935 17.424 16.5449 17.0519 16.2315 16.7385C15.9181 16.4251 15.546 16.1765 15.1366 16.0069C14.7271 15.8373 14.2882 15.75 13.845 15.75H4.5V22.5ZM4.5 11.25H12.75C13.1932 11.25 13.6321 11.1627 14.0416 10.9931C14.451 10.8235 14.8231 10.5749 15.1365 10.2615C15.4499 9.94809 15.6985 9.57603 15.8681 9.16656C16.0377 8.75708 16.125 8.31821 16.125 7.875C16.125 7.43179 16.0377 6.99292 15.8681 6.58344C15.6985 6.17397 15.4499 5.80191 15.1365 5.48851C14.8231 5.17512 14.451 4.92652 14.0416 4.75691C13.6321 4.5873 13.1932 4.5 12.75 4.5H4.5V11.25Z" />
</svg>
