<svg width="84" height="63" viewBox="0 0 84 63" xmlns="http://www.w3.org/2000/svg">
<path d="M81.3361 2.15003C82.8533 3.58443 83.7389 5.56268 83.7979 7.64981C83.857 9.73695 83.0848 11.7621 81.6511 13.28L37.0261 60.53C36.3028 61.2944 35.4337 61.9062 34.4701 62.329C33.5064 62.7519 32.4678 62.9773 31.4156 62.992C30.3633 63.0066 29.3188 62.8103 28.3438 62.4145C27.3687 62.0187 26.4829 61.4315 25.7386 60.6875L2.11356 37.0625C0.722524 35.5697 -0.0347694 33.5952 0.00122689 31.555C0.0372232 29.5149 0.863699 27.5683 2.30654 26.1255C3.74937 24.6827 5.69591 23.8562 7.73608 23.8202C9.77624 23.7842 11.7507 24.5415 13.2436 25.9325L31.1461 43.8245L70.2061 2.46503C71.6405 0.94775 73.6187 0.0622256 75.7058 0.0031557C77.793 -0.0559142 79.8181 0.716307 81.3361 2.15003Z" />
</svg>
