<svg width="56" height="48" viewBox="0 0 56 48" xmlns="http://www.w3.org/2000/svg">
<path d="M0 11.1667C0 5.90158 -1.66396e-07 3.27183 1.63592 1.63592C3.27183 -1.66396e-07 5.90158 0 11.1667 0H44.6667C49.9317 0 52.5615 -1.66396e-07 54.1974 1.63592C55.8333 3.27183 55.8333 5.90158 55.8333 11.1667C55.8333 12.4815 55.8333 13.1404 55.4257 13.5507C55.0154 13.9583 54.3537 13.9583 53.0417 13.9583H2.79167C1.47679 13.9583 0.817958 13.9583 0.407583 13.5507C-2.49594e-07 13.1404 0 12.4787 0 11.1667ZM0 36.2917C0 41.5567 -1.66396e-07 44.1865 1.63592 45.8224C3.27183 47.4583 5.90158 47.4583 11.1667 47.4583H44.6667C49.9317 47.4583 52.5615 47.4583 54.1974 45.8224C55.8333 44.1865 55.8333 41.5567 55.8333 36.2917V22.3333C55.8333 21.0185 55.8333 20.3596 55.4257 19.9492C55.0154 19.5417 54.3537 19.5417 53.0417 19.5417H2.79167C1.47679 19.5417 0.817958 19.5417 0.407583 19.9492C-2.49594e-07 20.3596 0 21.0212 0 22.3333V36.2917Z" />
</svg>
