<svg width="23" height="14" viewBox="0 0 23 14" fill="none" xmlns="http://www.w3.org/2000/svg">
<path d="M18.924 0.584042L11.164 8.34404L3.40404 0.584042C3.21888 0.398878 2.99906 0.251999 2.75713 0.151789C2.5152 0.0515788 2.2559 1.95102e-09 1.99404 0C1.73218 -1.95101e-09 1.47288 0.0515788 1.23096 0.151789C0.989027 0.251999 0.769205 0.398878 0.584042 0.584042C0.398878 0.769205 0.251998 0.989027 0.151788 1.23096C0.0515778 1.47288 -1.95102e-09 1.73218 0 1.99404C1.95102e-09 2.2559 0.0515778 2.5152 0.151788 2.75713C0.251998 2.99906 0.398878 3.21888 0.584042 3.40404L9.76404 12.584C10.544 13.364 11.804 13.364 12.584 12.584L21.764 3.40404C21.9494 3.21901 22.0965 2.99924 22.1969 2.75729C22.2973 2.51534 22.3489 2.25598 22.3489 1.99404C22.3489 1.7321 22.2973 1.47274 22.1969 1.23079C22.0965 0.988846 21.9494 0.769069 21.764 0.584042C20.984 -0.175958 19.704 -0.195958 18.924 0.584042Z" fill="black"/>
</svg>
