<svg width="48" height="48" viewBox="0 0 48 48" xmlns="http://www.w3.org/2000/svg">
<path d="M25.76 14.034L35.308 16.576M23.716 21.626L28.488 22.898M23.954 35.932L25.862 36.442C31.262 37.882 33.962 38.6 36.09 37.378C38.216 36.158 38.94 33.472 40.386 28.104L42.432 20.51C43.88 15.14 44.602 12.456 43.374 10.34C42.146 8.224 39.448 7.506 34.046 6.068L32.138 5.558C26.738 4.118 24.038 3.4 21.912 4.622C19.784 5.842 19.06 8.528 17.612 13.896L15.568 21.49C14.12 26.86 13.396 29.544 14.626 31.66C15.854 33.774 18.554 34.494 23.954 35.932Z" stroke-width="4" stroke-linecap="round"/>
<path d="M24 41.892L22.096 42.412C16.708 43.878 14.016 44.612 11.892 43.366C9.77199 42.122 9.04799 39.384 7.60599 33.91L5.56399 26.166C4.11999 20.692 3.39799 17.954 4.62399 15.798C5.68399 13.932 7.99999 14 11 14" stroke-width="4" stroke-linecap="round"/>
</svg>
