<svg width="32" height="28" viewBox="0 0 32 28" fill="none" xmlns="http://www.w3.org/2000/svg">
<path d="M2.564 14.128C1.708 14.784 1.124 15.346 0.814 15.83C0.503333 16.3113 0.317333 16.8233 0.256 17.366H5.614V15.87H2.826C2.988 15.708 3.13 15.568 3.25 15.468C3.374 15.3667 3.61467 15.1867 3.972 14.928C4.57733 14.492 4.99467 14.0893 5.224 13.72C5.456 13.348 5.57 12.97 5.57 12.564C5.5752 12.2 5.4699 11.8429 5.268 11.54C5.06878 11.2344 4.78143 10.9966 4.444 10.858C4.09467 10.7073 3.606 10.6333 2.978 10.636C2.37667 10.636 1.906 10.712 1.566 10.864C1.24117 11.0064 0.965636 11.2416 0.774 11.54C0.586 11.828 0.456666 12.2307 0.386 12.748L2.174 12.9C2.22333 12.5267 2.32133 12.264 2.468 12.112C2.54155 12.0401 2.62893 11.9839 2.72485 11.9468C2.82076 11.9096 2.92321 11.8924 3.026 11.896C3.246 11.896 3.42733 11.968 3.57 12.112C3.64054 12.1778 3.69628 12.2578 3.73352 12.3468C3.77076 12.4357 3.78865 12.5316 3.786 12.628C3.77366 12.8429 3.69856 13.0494 3.57 13.222C3.42333 13.4273 3.088 13.7293 2.564 14.128ZM2.674 26.9C2.46583 26.9061 2.2635 26.8307 2.11 26.69C1.962 26.5513 1.854 26.2993 1.786 25.934L0 26.17C0.117333 26.578 0.284667 26.9153 0.502 27.182C0.719333 27.4487 0.997334 27.6527 1.336 27.794C1.672 27.9313 2.13333 28 2.72 28C3.32 28 3.80333 27.9067 4.17 27.72C4.52669 27.5419 4.82199 27.2612 5.018 26.914C5.21267 26.5673 5.31 26.2047 5.31 25.826C5.31932 25.5533 5.25873 25.2827 5.134 25.04C5.01645 24.8255 4.84475 24.6455 4.636 24.518C4.45777 24.4157 4.26484 24.3415 4.064 24.298C4.33965 24.1584 4.57664 23.953 4.754 23.7C4.90544 23.4736 4.98428 23.2064 4.98 22.934C4.98325 22.7056 4.93431 22.4796 4.83692 22.273C4.73952 22.0664 4.59624 21.8848 4.418 21.742C4.04467 21.4247 3.43867 21.266 2.6 21.266C1.86933 21.266 1.30467 21.412 0.906 21.704C0.506 21.992 0.236666 22.4093 0.0979996 22.956L1.786 23.258C1.83133 22.9353 1.92 22.71 2.052 22.582C2.25 22.39 2.354 22.386 2.566 22.386C2.65416 22.3819 2.74224 22.3956 2.82503 22.4262C2.90782 22.4567 2.98364 22.5036 3.048 22.564C3.16533 22.684 3.22333 22.8427 3.222 23.04C3.222 23.2467 3.144 23.4267 2.988 23.58C2.754 23.81 2.634 23.804 2.402 23.804C2.32431 23.8012 2.24684 23.7938 2.17 23.782L2.08 25.08C2.26609 25.0144 2.46086 24.9766 2.658 24.968C2.92333 24.968 3.132 25.052 3.284 25.22C3.43733 25.384 3.514 25.6187 3.514 25.924C3.514 26.2173 3.43467 26.4533 3.276 26.632C3.20044 26.7169 3.10768 26.7846 3.00388 26.8309C2.90007 26.8771 2.78762 26.9006 2.674 26.9ZM4.57 6.734V0H3.092C2.90957 0.402443 2.64049 0.759619 2.304 1.046C1.968 1.32867 1.496 1.572 0.888 1.776V3.284C1.5716 3.09514 2.20933 2.76845 2.762 2.324V6.736L4.57 6.734ZM10 2H32V6H10V2ZM10 12H32V16H10V12ZM10 22H32V26H10V22Z" fill="black"/>
</svg>
