<svg width="32" height="32" viewBox="0 0 32 32" fill="none" xmlns="http://www.w3.org/2000/svg">
<path d="M2 16.002H30M24 5.002C23.5465 4.12192 22.5071 3.34529 21.053 2.8C19.5989 2.25471 17.8167 1.97326 16 2.002H14C12.1435 2.002 10.363 2.7395 9.05025 4.05225C7.7375 5.36501 7 7.14549 7 9.002C7 10.8585 7.7375 12.639 9.05025 13.9517C10.363 15.2645 12.1435 16.002 14 16.002H18C19.8565 16.002 21.637 16.7395 22.9497 18.0523C24.2625 19.365 25 21.1455 25 23.002C25 24.8585 24.2625 26.639 22.9497 27.9518C21.637 29.2645 19.8565 30.002 18 30.002H15C13.1833 30.0307 11.4011 29.7493 9.947 29.204C8.49288 28.6587 7.4535 27.8821 7 27.002" stroke-width="4" stroke-linecap="round" stroke-linejoin="round"/>
</svg>
