<svg width="49" height="47" viewBox="0 0 49 47" xmlns="http://www.w3.org/2000/svg">
<path d="M14.5705 0.0165623C14.0918 0.0800619 13.657 0.328593 13.3594 0.70887L7.06953 8.61225L2.91569 5.84302C2.71109 5.70562 2.48137 5.60997 2.23972 5.56156C1.99806 5.51314 1.74923 5.51293 1.50749 5.56092C1.26575 5.60891 1.03587 5.70416 0.831028 5.8412C0.626191 5.97825 0.450431 6.1544 0.313834 6.35954C0.177237 6.56468 0.0824916 6.79477 0.0350341 7.03661C-0.0124235 7.27846 -0.0116589 7.52729 0.0372838 7.76884C0.0862265 8.01038 0.182384 8.23989 0.320239 8.44419C0.458094 8.64848 0.634932 8.82354 0.840608 8.95933L6.37907 12.6516C6.76725 12.9101 7.23886 13.0121 7.69913 12.9371C8.15941 12.8621 8.57425 12.6156 8.8603 12.2473L16.2449 3.01656C16.4799 2.72989 16.6232 2.3791 16.6561 2.00987C16.6889 1.64064 16.6099 1.27007 16.4292 0.946385C16.2486 0.622701 15.9746 0.3609 15.6431 0.19506C15.3116 0.0292202 14.9378 -0.0329778 14.5705 0.0165623ZM22.1858 5.55502V9.24733H48.032V5.55502H22.1858ZM14.5705 16.6319C14.0918 16.6954 13.657 16.944 13.3594 17.3243L7.06953 25.2276L2.91569 22.4584C2.50244 22.183 1.99671 22.083 1.50975 22.1805C1.02279 22.2779 0.594487 22.5649 0.31907 22.9781C0.0436526 23.3913 -0.056322 23.8971 0.0411392 24.384C0.1386 24.871 0.425514 25.2993 0.838762 25.5747L6.37722 29.267C6.7654 29.5255 7.23701 29.6275 7.69729 29.5525C8.15757 29.4774 8.57241 29.231 8.85845 28.8627L16.2431 19.6319C16.4779 19.3454 16.6211 18.9948 16.654 18.6258C16.6869 18.2568 16.608 17.8864 16.4276 17.5628C16.2472 17.2392 15.9736 16.9774 15.6424 16.8114C15.3112 16.6454 14.9377 16.5828 14.5705 16.6319ZM22.1858 22.1704V25.8627H48.032V22.1704H22.1858ZM14.5705 33.2473C14.0918 33.3108 13.657 33.5594 13.3594 33.9396L7.06953 41.843L2.91569 39.0738C2.71107 38.9374 2.48159 38.8427 2.24036 38.795C1.99913 38.7473 1.75086 38.7476 1.50975 38.7959C1.02279 38.8933 0.594487 39.1802 0.31907 39.5935C0.0436526 40.0067 -0.056322 40.5125 0.0411392 40.9994C0.1386 41.4864 0.425514 41.9147 0.838762 42.1901L6.37722 45.8824C6.7654 46.1409 7.23701 46.2428 7.69729 46.1678C8.15757 46.0928 8.57241 45.8464 8.85845 45.4781L16.2431 36.2473C16.4779 35.9608 16.6211 35.6102 16.654 35.2412C16.6869 34.8722 16.608 34.5018 16.4276 34.1782C16.2472 33.8546 15.9736 33.5928 15.6424 33.4268C15.3112 33.2608 14.9377 33.1982 14.5705 33.2473ZM22.1858 38.7858V42.4781H48.032V38.7858H22.1858Z" />
</svg>
